<svg width="417" height="141" viewBox="0 0 417 141" fill="none" xmlns="http://www.w3.org/2000/svg">
<path d="M124.485 49.2893C124.307 49.5132 123.971 49.6027 123.48 49.5579C122.988 49.5132 122.631 49.4908 122.407 49.4908C122.184 49.4908 121.715 49.4684 121 49.4236C120.285 49.4236 119.502 49.4012 118.653 49.3565C117.849 49.3117 117.089 49.2893 116.374 49.2893C115.659 49.2446 115.19 49.2222 114.966 49.2222C114.654 49.3117 114.43 49.2446 114.296 49.0207C114.207 48.8864 114.14 48.6626 114.095 48.3492C114.095 47.9911 114.095 47.7225 114.095 47.5434C114.095 43.38 114.095 39.2613 114.095 35.1875C114.14 31.1136 114.229 26.995 114.363 22.8316C114.363 22.3839 114.385 21.6228 114.43 20.5484C114.475 19.4292 114.519 18.1757 114.564 16.7879C114.654 15.3553 114.721 13.8556 114.765 12.2888C114.81 10.6771 114.832 9.17739 114.832 7.78959C114.877 6.35702 114.899 5.10353 114.899 4.0291C114.944 2.9099 114.966 2.12647 114.966 1.67879C114.966 1.36542 114.944 1.02966 114.899 0.671516C114.855 0.313373 115.011 0.134302 115.369 0.134302C115.458 0.134302 115.659 0.134302 115.972 0.134302C116.329 0.0895344 116.553 0.0671508 116.642 0.0671508C117.536 0.0671508 118.452 0.0895344 119.391 0.134302C120.329 0.134302 121.245 0.134302 122.139 0.134302C122.541 0.134302 122.921 0.134302 123.279 0.134302C123.681 0.0895344 124.061 0.0895344 124.418 0.134302C124.597 0.134302 124.821 0.156685 125.089 0.201452C125.402 0.201452 125.603 0.268605 125.692 0.402909C125.737 0.58198 125.737 0.761052 125.692 0.940123C125.647 1.5221 125.58 2.507 125.491 3.89479C125.446 5.23783 125.357 6.8047 125.223 8.59541C125.133 10.3414 125.022 12.1992 124.888 14.169C124.798 16.1388 124.709 18.019 124.619 19.8097C124.53 21.5557 124.441 23.1226 124.351 24.5104C124.307 25.8982 124.284 26.8607 124.284 27.3979C126.519 27.3083 128.731 27.286 130.921 27.3307C133.111 27.3307 135.323 27.3531 137.557 27.3979C137.557 26.8607 137.58 25.9205 137.624 24.5775C137.669 23.2345 137.714 21.7124 137.758 20.0112C137.803 18.2653 137.848 16.4298 137.892 14.5048C137.982 12.5797 138.049 10.7666 138.093 9.06547C138.138 7.31953 138.161 5.77504 138.161 4.43201C138.205 3.08897 138.228 2.14885 138.228 1.61164C138.228 1.29826 138.205 0.962505 138.161 0.604365C138.161 0.246222 138.317 0.0671508 138.63 0.0671508C138.719 0.0671508 138.92 0.0671508 139.233 0.0671508C139.591 0.0223836 139.814 0 139.903 0C140.842 0 141.758 0.0223836 142.652 0.0671508C143.59 0.0671508 144.507 0.0671508 145.4 0.0671508C145.803 0.0671508 146.182 0.0671508 146.54 0.0671508C146.942 0.0223836 147.322 0 147.68 0C147.858 0.0447672 148.082 0.0895344 148.35 0.134302C148.663 0.134302 148.864 0.201454 148.953 0.335758C148.998 0.380525 149.02 0.559595 149.02 0.872968C148.976 1.41018 148.908 2.37269 148.819 3.76049C148.73 5.10352 148.618 6.64801 148.484 8.39396C148.395 10.1399 148.283 11.9978 148.149 13.9675C148.059 15.8926 147.97 17.728 147.881 19.474C147.791 21.2199 147.702 22.7868 147.612 24.1746C147.568 25.5176 147.545 26.4578 147.545 26.995C147.456 30.2183 147.478 33.4191 147.612 36.5977C147.747 39.7314 147.858 42.9099 147.948 46.1332C147.948 46.3123 147.948 46.5585 147.948 46.8719C147.992 47.1405 148.015 47.4315 148.015 47.7448C148.015 48.0582 147.992 48.3492 147.948 48.6178C147.948 48.8864 147.881 49.0879 147.747 49.2222C147.612 49.4012 147.3 49.4684 146.808 49.4236C146.316 49.4236 145.937 49.4236 145.668 49.4236C145.445 49.4236 144.976 49.4012 144.261 49.3565C143.546 49.3565 142.764 49.3341 141.914 49.2893C141.11 49.2446 140.35 49.2222 139.635 49.2222C138.92 49.1774 138.451 49.155 138.228 49.155C138.138 49.155 138.026 49.155 137.892 49.155C137.758 49.1103 137.647 49.0431 137.557 48.9536C137.468 48.8193 137.401 48.573 137.356 48.2149C137.356 47.8568 137.356 47.6105 137.356 47.4762C137.356 45.3721 137.356 43.2904 137.356 41.2311C137.356 39.1718 137.378 37.0677 137.423 34.9189C137.021 34.9636 136.194 34.9636 134.943 34.9189C133.692 34.8741 132.328 34.8293 130.854 34.7846C129.424 34.7398 128.061 34.695 126.765 34.6503C125.513 34.6055 124.686 34.5831 124.284 34.5831C124.329 36.5529 124.374 38.5003 124.418 40.4253C124.508 42.3503 124.575 44.2753 124.619 46.2003C124.664 46.5585 124.709 47.1181 124.754 47.8791C124.798 48.5954 124.709 49.0655 124.485 49.2893Z" fill="white"/>
<path d="M161.762 49.7594C160.466 49.8042 159.147 49.7594 157.807 49.6251C156.51 49.4908 155.192 49.4684 153.851 49.5579C153.628 49.5579 153.427 49.4684 153.248 49.2893C153.069 49.1103 153.002 48.9088 153.047 48.685C153.405 46.7152 153.851 44.7678 154.388 42.8428C154.924 40.9177 155.438 38.9927 155.93 37.0677C157.136 32.5909 158.365 28.1813 159.616 23.8388C160.912 19.4516 162.253 15.042 163.639 10.61C164.13 9.04309 164.599 7.4986 165.046 5.9765C165.538 4.45439 166.097 2.93229 166.722 1.41018C166.767 1.32065 166.767 1.2535 166.722 1.20873C166.722 1.11919 166.767 1.02966 166.856 0.940123C166.99 0.716285 167.258 0.604365 167.661 0.604365C168.108 0.559595 168.465 0.53721 168.733 0.53721C170.029 0.58198 171.303 0.626749 172.554 0.671516C173.85 0.671516 175.146 0.649132 176.442 0.604365C176.8 0.604365 177.157 0.58198 177.515 0.53721C177.872 0.492443 178.208 0.537212 178.52 0.671516C178.654 0.716283 178.766 0.805819 178.856 0.940123C178.945 1.07442 179.034 1.20873 179.124 1.34303C180.688 7.11808 182.096 12.9155 183.347 18.7353C184.643 24.5104 185.939 30.3302 187.235 36.1947C188.173 40.5372 189.246 44.7454 190.453 48.8193C190.542 49.0431 190.564 49.1998 190.52 49.2893C190.475 49.5132 190.341 49.6251 190.117 49.6251C189.939 49.6251 189.76 49.6251 189.581 49.6251C189.224 49.6251 188.598 49.6027 187.704 49.5579C186.855 49.5579 185.939 49.5355 184.956 49.4908C183.973 49.4908 183.034 49.4908 182.14 49.4908C181.246 49.4908 180.643 49.5355 180.33 49.6251C180.196 49.6251 180.084 49.5355 179.995 49.3565C179.95 49.1326 179.861 48.7073 179.727 48.0806C179.593 47.4538 179.436 46.7823 179.258 46.066C179.124 45.305 178.99 44.6111 178.856 43.9843C178.721 43.3576 178.632 42.9323 178.587 42.7085C178.14 42.6637 177.269 42.6189 175.973 42.5742C174.677 42.5294 173.292 42.4846 171.817 42.4399C170.387 42.3951 169.024 42.3727 167.728 42.3727C166.432 42.3279 165.56 42.3056 165.113 42.3056C164.89 43.38 164.644 44.4544 164.376 45.5288C164.152 46.6033 163.951 47.7001 163.773 48.8193C163.683 49.1774 163.415 49.4236 162.968 49.5579C162.566 49.6922 162.164 49.7594 161.762 49.7594ZM166.856 34.8517C168.554 34.9413 170.253 35.0084 171.951 35.0532C173.649 35.0532 175.347 35.0756 177.046 35.1203C176.956 34.6279 176.8 33.7997 176.576 32.6357C176.353 31.427 176.085 30.0616 175.772 28.5395C175.459 26.9726 175.124 25.3162 174.766 23.5702C174.454 21.8243 174.141 20.1903 173.828 18.6682C173.515 17.1013 173.225 15.7359 172.956 14.5719C172.733 13.3632 172.577 12.5126 172.487 12.0201C171.504 15.8254 170.543 19.6307 169.605 23.4359C168.666 27.1964 167.75 31.0017 166.856 34.8517Z" fill="white"/>
<path d="M204.122 49.8265C202.558 49.9608 200.994 49.9608 199.43 49.8265C197.865 49.737 196.301 49.737 194.737 49.8265C194.514 49.8265 194.38 49.737 194.335 49.5579C194.335 49.3789 194.335 49.1774 194.335 48.9536C194.558 42.8204 194.804 36.7543 195.072 30.7555C195.34 24.7118 195.609 18.6234 195.877 12.4902C195.921 10.9233 195.921 9.37885 195.877 7.85674C195.877 6.33464 195.921 4.81254 196.011 3.29043C196.011 3.06659 196.033 2.7756 196.078 2.41746C196.122 2.05932 196.212 1.83548 196.346 1.74594C196.48 1.65641 196.681 1.56687 196.949 1.47733C197.217 1.3878 197.486 1.32065 197.754 1.27588C198.066 1.23111 198.357 1.20873 198.625 1.20873C198.938 1.16396 199.161 1.14158 199.295 1.14158C204.033 0.649131 208.747 0.716283 213.44 1.34303C214.066 1.43257 214.691 1.54449 215.317 1.67879C215.987 1.81309 216.613 2.01455 217.194 2.28316C218.177 2.68607 219.048 3.26805 219.808 4.0291C220.613 4.74538 221.261 5.5512 221.752 6.44656C222.601 7.9239 223.16 9.53554 223.428 11.2815C223.741 12.9827 223.875 14.6838 223.83 16.385C223.83 18.0414 223.741 19.6978 223.562 21.3542C223.383 22.9659 222.981 24.5327 222.356 26.0548C221.953 27.0397 221.439 27.9799 220.814 28.8752C220.188 29.7258 219.451 30.4421 218.602 31.0241C217.44 31.7851 216.166 32.3223 214.781 32.6357C213.395 32.9043 212.01 33.0834 210.624 33.1729C210.401 33.1729 210.021 33.1729 209.485 33.1729C208.948 33.1729 208.368 33.1729 207.742 33.1729C207.161 33.1729 206.602 33.1729 206.066 33.1729C205.53 33.1282 205.172 33.0834 204.993 33.0386C204.993 33.3968 204.993 34.0011 204.993 34.8517C204.993 35.6575 204.993 36.62 204.993 37.7392C204.993 38.8137 204.993 39.9552 204.993 41.164C205.038 42.3279 205.06 43.4471 205.06 44.5216C205.06 45.596 205.06 46.5585 205.06 47.4091C205.105 48.2597 205.127 48.8416 205.127 49.155C205.127 49.3789 205.016 49.5355 204.792 49.6251C204.569 49.7146 204.345 49.7818 204.122 49.8265ZM205.53 24.8461C205.977 24.8909 206.58 24.9133 207.34 24.9133C208.099 24.8685 208.881 24.8013 209.686 24.7118C210.49 24.5775 211.228 24.4208 211.898 24.2418C212.613 24.0627 213.149 23.8388 213.507 23.5702C213.775 23.3464 213.998 22.9883 214.177 22.4958C214.401 22.0034 214.579 21.4885 214.714 20.9513C214.848 20.3693 214.937 19.8097 214.982 19.2725C215.071 18.6905 215.116 18.2205 215.116 17.8623C215.116 17.2804 215.071 16.6088 214.982 15.8478C214.892 15.0867 214.736 14.3481 214.512 13.6318C214.334 12.8707 214.066 12.1768 213.708 11.5501C213.35 10.9233 212.926 10.4757 212.434 10.2071C212.121 10.028 211.652 9.89368 211.027 9.80414C210.446 9.66984 209.82 9.5803 209.15 9.53553C208.479 9.49077 207.809 9.46838 207.139 9.46838C206.513 9.46838 206.044 9.49077 205.731 9.53553C205.731 12.0873 205.664 14.6167 205.53 17.1237C205.44 19.6307 205.373 22.16 205.329 24.7118C205.329 24.8013 205.396 24.8461 205.53 24.8461Z" fill="white"/>
<path d="M238.229 49.8265C236.665 49.9608 235.1 49.9608 233.536 49.8265C231.972 49.737 230.408 49.737 228.844 49.8265C228.62 49.8265 228.486 49.737 228.442 49.5579C228.442 49.3789 228.442 49.1774 228.442 48.9536C228.665 42.8204 228.911 36.7543 229.179 30.7555C229.447 24.7118 229.715 18.6234 229.983 12.4902C230.028 10.9233 230.028 9.37885 229.983 7.85674C229.983 6.33464 230.028 4.81254 230.117 3.29043C230.117 3.06659 230.14 2.7756 230.184 2.41746C230.229 2.05932 230.319 1.83548 230.453 1.74594C230.587 1.65641 230.788 1.56687 231.056 1.47733C231.324 1.3878 231.592 1.32065 231.86 1.27588C232.173 1.23111 232.464 1.20873 232.732 1.20873C233.045 1.16396 233.268 1.14158 233.402 1.14158C238.139 0.649131 242.854 0.716283 247.547 1.34303C248.172 1.43257 248.798 1.54449 249.424 1.67879C250.094 1.81309 250.72 2.01455 251.301 2.28316C252.284 2.68607 253.155 3.26805 253.915 4.0291C254.719 4.74538 255.367 5.5512 255.859 6.44656C256.708 7.9239 257.267 9.53554 257.535 11.2815C257.848 12.9827 257.982 14.6838 257.937 16.385C257.937 18.0414 257.848 19.6978 257.669 21.3542C257.49 22.9659 257.088 24.5327 256.462 26.0548C256.06 27.0397 255.546 27.9799 254.92 28.8752C254.295 29.7258 253.557 30.4421 252.708 31.0241C251.546 31.7851 250.273 32.3223 248.887 32.6357C247.502 32.9043 246.116 33.0834 244.731 33.1729C244.508 33.1729 244.128 33.1729 243.591 33.1729C243.055 33.1729 242.474 33.1729 241.849 33.1729C241.268 33.1729 240.709 33.1729 240.173 33.1729C239.636 33.1282 239.279 33.0834 239.1 33.0386C239.1 33.3968 239.1 34.0011 239.1 34.8517C239.1 35.6575 239.1 36.62 239.1 37.7392C239.1 38.8137 239.1 39.9552 239.1 41.164C239.145 42.3279 239.167 43.4471 239.167 44.5216C239.167 45.596 239.167 46.5585 239.167 47.4091C239.212 48.2597 239.234 48.8416 239.234 49.155C239.234 49.3789 239.122 49.5355 238.899 49.6251C238.676 49.7146 238.452 49.7818 238.229 49.8265ZM239.636 24.8461C240.083 24.8909 240.687 24.9133 241.446 24.9133C242.206 24.8685 242.988 24.8013 243.793 24.7118C244.597 24.5775 245.334 24.4208 246.005 24.2418C246.72 24.0627 247.256 23.8388 247.614 23.5702C247.882 23.3464 248.105 22.9883 248.284 22.4958C248.507 22.0034 248.686 21.4885 248.82 20.9513C248.954 20.3693 249.044 19.8097 249.088 19.2725C249.178 18.6905 249.222 18.2205 249.222 17.8623C249.222 17.2804 249.178 16.6088 249.088 15.8478C248.999 15.0867 248.843 14.3481 248.619 13.6318C248.44 12.8707 248.172 12.1768 247.815 11.5501C247.457 10.9233 247.033 10.4757 246.541 10.2071C246.228 10.028 245.759 9.89368 245.133 9.80414C244.552 9.66984 243.927 9.5803 243.256 9.53553C242.586 9.49077 241.916 9.46838 241.245 9.46838C240.62 9.46838 240.15 9.49077 239.838 9.53553C239.838 12.0873 239.77 14.6167 239.636 17.1237C239.547 19.6307 239.48 22.16 239.435 24.7118C239.435 24.8013 239.502 24.8461 239.636 24.8461Z" fill="white"/>
<path d="M284.171 49.2222C284.037 49.446 283.791 49.5579 283.434 49.5579C283.166 49.5579 282.629 49.5579 281.825 49.5579C281.021 49.5579 280.172 49.5355 279.278 49.4908C278.429 49.4908 277.602 49.4684 276.797 49.4236C275.993 49.4236 275.457 49.4012 275.189 49.3565C275.054 49.4012 274.92 49.3789 274.786 49.2893C274.652 49.1998 274.585 49.0879 274.585 48.9536C274.63 47.6553 274.675 46.4018 274.719 45.1931C274.809 43.9396 274.876 42.6637 274.92 41.3654C275.01 39.3509 275.032 37.3363 274.987 35.3218C274.943 33.2625 274.92 31.2255 274.92 29.211C272.373 25.0028 269.87 20.7946 267.412 16.5865C264.999 12.3335 262.541 8.08058 260.039 3.82764C259.994 3.78288 259.905 3.67096 259.77 3.49189C259.681 3.26805 259.569 3.04421 259.435 2.82037C259.301 2.59653 259.167 2.39508 259.033 2.216C258.944 2.03693 258.877 1.90263 258.832 1.8131C258.743 1.58925 258.653 1.3878 258.564 1.20873C258.519 0.984889 258.609 0.850585 258.832 0.805818C258.966 0.76105 259.167 0.738667 259.435 0.738667C259.748 0.6939 260.061 0.671516 260.374 0.671516C260.687 0.626749 260.977 0.604365 261.245 0.604365C261.558 0.604365 261.782 0.604365 261.916 0.604365C263.033 0.604365 264.128 0.604365 265.2 0.604365C266.318 0.604365 267.435 0.626749 268.552 0.671516C268.91 0.671516 269.178 0.850587 269.357 1.20873C269.535 1.56687 269.736 1.88025 269.96 2.14885C271.613 4.96922 273.2 7.81198 274.719 10.6771C276.283 13.4975 277.937 16.2955 279.68 19.0711C281.378 16.3402 282.987 13.587 284.506 10.8114C286.071 7.99105 287.679 5.19306 289.333 2.41746C289.512 2.10408 289.69 1.76833 289.869 1.41018C290.048 1.05204 290.316 0.872968 290.674 0.872968C291.031 0.872968 291.657 0.850585 292.551 0.805818C293.489 0.76105 294.472 0.738667 295.5 0.738667C296.528 0.738667 297.489 0.76105 298.383 0.805818C299.321 0.805818 299.969 0.850586 300.327 0.940123C300.64 0.98489 300.707 1.23111 300.528 1.67879C300.394 2.03693 300.215 2.39508 299.992 2.75322C299.813 3.06659 299.612 3.40235 299.388 3.76049C296.886 7.96866 294.428 12.1768 292.014 16.385C289.646 20.5484 287.188 24.7342 284.641 28.9424C284.641 32.2552 284.618 35.568 284.573 38.8808C284.529 42.1489 284.529 45.4393 284.573 48.7521C284.573 49.0207 284.439 49.1774 284.171 49.2222Z" fill="white"/>
<path d="M38.927 139.143C36.5927 140.175 34.1212 140.759 31.5123 140.897C28.9721 141.034 26.4319 141.034 23.8917 140.897C23.0678 140.828 21.5918 140.725 19.4635 140.587C17.4039 140.519 15.2069 140.45 12.8727 140.381C10.5384 140.312 8.34149 140.278 6.28187 140.278C4.22224 140.278 2.7805 140.347 1.95665 140.484C1.68203 140.484 1.37309 140.45 1.02981 140.381C0.755197 140.312 0.549234 140.175 0.411926 139.968C0.137309 139.693 0 139.212 0 138.524C0.137309 133.504 0.24029 128.518 0.308944 123.566C0.377598 118.545 0.514907 113.559 0.72087 108.608C0.926833 101.73 1.20145 94.9216 1.54472 88.1818C1.95665 81.3732 2.19694 74.5302 2.26559 67.6529C2.26559 67.1027 2.47155 66.6213 2.88348 66.2086C3.08944 66.0023 3.46704 65.8648 4.01627 65.796C4.56551 65.6584 5.14907 65.5553 5.76696 65.4865C6.38485 65.349 6.96841 65.2458 7.51764 65.177C8.13553 65.1082 8.61611 65.0739 8.95938 65.0739C14.1771 64.5924 19.4292 64.5924 24.7155 65.0739C26.8438 65.3489 28.9378 65.7272 30.9974 66.2086C33.1257 66.6213 35.151 67.309 37.0733 68.2718C40.0941 69.6473 42.4627 71.8137 44.179 74.7709C45.2088 76.4215 45.9984 78.244 46.5476 80.2385C47.0968 82.1641 47.3371 84.1242 47.2685 86.1186C47.1998 87.4941 46.9938 88.8695 46.6506 90.245C46.376 91.5517 45.861 92.7897 45.1059 93.9588C44.076 95.7469 42.6686 97.2943 40.8836 98.601C39.0986 99.839 37.2106 100.767 35.2196 101.386C36.4554 101.73 37.6912 102.108 38.927 102.521C40.1627 102.865 41.3642 103.312 42.5313 103.862C44.6596 104.894 46.3073 106.407 47.4744 108.401C48.7102 110.327 49.5341 112.493 49.946 114.9C50.4266 117.239 50.5295 119.68 50.2549 122.225C49.9803 124.701 49.4311 127.039 48.6072 129.24C47.852 131.44 46.5819 133.401 44.7969 135.12C43.0119 136.839 41.0553 138.18 38.927 139.143ZM14.1085 96.7441C16.0994 96.7441 18.0904 96.7441 20.0814 96.7441C22.0723 96.7441 24.029 96.5034 25.9513 96.022C27.1184 95.7469 28.2512 95.3343 29.3497 94.7841C30.5168 94.1651 31.478 93.3742 32.2332 92.4114C33.057 91.3798 33.6063 90.1419 33.8809 88.6976C34.1555 87.2534 34.1898 85.8435 33.9839 84.468C33.8466 83.9178 33.6749 83.3677 33.469 82.8175C33.263 82.2673 32.9884 81.8202 32.6451 81.4764C32.0959 80.9262 31.4437 80.4792 30.6885 80.1353C30.0019 79.7914 29.281 79.5163 28.5258 79.31C26.3289 78.6223 24.0633 78.2096 21.7291 78.0721C19.3948 77.9345 17.0606 77.9345 14.7263 78.0721C14.7263 81.1669 14.6577 84.2617 14.5204 87.3565C14.3831 90.4513 14.2458 93.5805 14.1085 96.7441ZM13.6965 126.97C17.6785 127.727 21.5918 127.795 25.4364 127.176C26.8781 126.97 28.2856 126.592 29.6586 126.042C31.1004 125.492 32.3018 124.632 33.263 123.463C34.0182 122.569 34.5331 121.537 34.8077 120.368C35.0823 119.13 35.1167 117.892 34.9107 116.654C34.7734 115.416 34.4301 114.213 33.8809 113.044C33.4003 111.874 32.7481 110.843 31.9242 109.949C31.0317 108.986 29.8646 108.161 28.4229 107.473C26.1573 106.579 23.7544 106.063 21.2142 105.925C18.7426 105.788 16.3054 105.719 13.9025 105.719C13.8338 109.295 13.7995 112.837 13.7995 116.345C13.7995 119.852 13.7652 123.394 13.6965 126.97Z" fill="#9FF9FE"/>
<path d="M75.8193 76.0089C75.3387 76.1464 74.4462 76.2152 73.1417 76.2152C71.906 76.2152 70.5672 76.1808 69.1255 76.112C67.6837 76.0433 66.3106 75.9745 65.0062 75.9057C63.7018 75.7682 62.8093 75.6994 62.3287 75.6994C62.1227 75.6306 61.7108 75.5962 61.0929 75.5962C60.5437 75.5962 60.2004 75.5275 60.0631 75.3899C59.8571 75.3211 59.6855 75.1836 59.5482 74.9773C59.4795 74.7022 59.4452 74.4271 59.4452 74.152C59.4452 72.8453 59.4109 71.573 59.3422 70.335C59.3422 69.0283 59.3079 67.7216 59.2392 66.4149C59.2392 66.0023 59.2736 65.5897 59.3422 65.177C59.4795 64.7644 59.7885 64.5581 60.2691 64.5581C61.9168 64.5581 63.5645 64.5581 65.2122 64.5581C66.9285 64.4893 68.6106 64.4205 70.2583 64.3517C71.0135 64.283 71.803 64.2142 72.6268 64.1454C73.4507 64.0766 74.2745 64.0766 75.0984 64.1454C75.373 64.1454 75.6819 64.2142 76.0252 64.3517C76.4371 64.4893 76.6088 64.73 76.5401 65.0739C76.5401 65.4177 76.5058 66.0711 76.4371 67.0339C76.4371 67.928 76.4371 68.8908 76.4371 69.9224C76.4371 70.954 76.4371 71.9512 76.4371 72.9141C76.5058 73.8081 76.5744 74.4271 76.6431 74.7709C76.6431 75.4587 76.3685 75.8713 75.8193 76.0089ZM73.0388 140.691C72.6268 140.691 71.7686 140.691 70.4642 140.691C69.1598 140.691 67.7867 140.656 66.345 140.587C64.9032 140.519 63.5301 140.484 62.2257 140.484C60.9213 140.484 60.0631 140.484 59.6512 140.484C59.1019 140.484 58.7243 140.347 58.5184 140.072C58.3811 139.796 58.3124 139.521 58.3124 139.246C58.3124 138.971 58.3124 138.696 58.3124 138.421C58.3811 133.676 58.4154 128.999 58.4154 124.391C58.4154 119.715 58.5527 115.004 58.8273 110.258C58.8273 109.708 58.8616 108.78 58.9303 107.473C58.999 106.166 59.0676 104.722 59.1363 103.14C59.2049 101.49 59.2736 99.7358 59.3422 97.8789C59.4795 96.022 59.5482 94.3027 59.5482 92.7209C59.6168 91.0703 59.6512 89.5917 59.6512 88.285C59.7198 86.9783 59.7198 86.0498 59.6512 85.4996C59.6512 85.2245 59.6168 84.9494 59.5482 84.6744C59.5482 84.3993 59.6855 84.2273 59.9601 84.1586C60.2347 84.0898 60.7496 84.0554 61.5048 84.0554C62.26 83.9866 63.0496 83.9522 63.8734 83.9522C64.6973 83.9522 65.4525 83.9866 66.139 84.0554C66.8942 84.0554 67.4434 84.0554 67.7867 84.0554H74.5835C74.7208 84.0554 74.9611 84.0898 75.3043 84.1586C75.6476 84.2273 75.8879 84.3305 76.0252 84.468C76.0252 84.468 76.0252 84.64 76.0252 84.9838C75.9566 85.6716 75.8536 86.8063 75.7163 88.3881C75.6476 89.9012 75.5103 91.6549 75.3043 93.6493C75.167 95.6438 74.9954 97.7757 74.7894 100.045C74.6521 102.246 74.5148 104.344 74.3775 106.338C74.2402 108.333 74.1029 110.121 73.9656 111.702C73.8969 113.284 73.8626 114.385 73.8626 115.004C73.7253 118.717 73.7253 122.397 73.8626 126.042C74.0686 129.618 74.2402 133.229 74.3775 136.874C74.4462 137.286 74.4805 137.905 74.4805 138.73C74.5491 139.556 74.4805 140.14 74.2745 140.484C74.1372 140.622 73.9313 140.691 73.6566 140.691C73.382 140.691 73.1761 140.691 73.0388 140.691Z" fill="#9FF9FE"/>
<path d="M99.7922 140.587C97.458 140.794 95.1237 140.794 92.7895 140.587C90.5239 140.45 88.2239 140.45 85.8897 140.587C85.4778 140.587 85.2032 140.553 85.0659 140.484C84.9285 140.347 84.8599 140.14 84.8599 139.865C84.8599 139.59 84.8599 139.384 84.8599 139.246C85.2032 129.893 85.5808 120.609 85.9927 111.393C86.4046 102.177 86.7822 92.9272 87.1255 83.6428C87.2628 81.2357 87.2971 78.863 87.2285 76.5247C87.2285 74.1864 87.2971 71.8481 87.4344 69.5098C87.4344 69.1659 87.4687 68.6845 87.5374 68.0655C87.6061 67.3778 87.7434 66.9307 87.9493 66.7244C88.224 66.4493 88.7045 66.243 89.3911 66.1055C90.1463 65.8991 90.9015 65.7616 91.6567 65.6928C92.4805 65.624 93.27 65.5897 94.0252 65.5897C94.7804 65.5209 95.364 65.4865 95.7759 65.4865C99.0027 65.349 102.195 65.3146 105.353 65.3833C108.58 65.4521 111.807 65.7272 115.033 66.2086C116.75 66.4837 118.397 66.9651 119.977 67.6529C121.624 68.3406 123.066 69.269 124.302 70.4382C125.263 71.3323 126.052 72.3295 126.67 73.4299C127.357 74.5302 127.94 75.6994 128.421 76.9373C129.176 78.863 129.657 80.8918 129.863 83.0238C130.069 85.087 130.172 87.1502 130.172 89.2134C130.172 91.0703 130.103 92.9272 129.966 94.7841C129.828 96.641 129.519 98.4635 129.039 100.252C128.764 101.49 128.387 102.727 127.906 103.965C127.426 105.135 126.808 106.201 126.052 107.163C124.748 108.883 123.135 110.293 121.212 111.393C119.29 112.493 117.299 113.353 115.239 113.972C115.583 114.453 116.132 115.313 116.887 116.551C117.711 117.789 118.603 119.199 119.565 120.781C120.594 122.294 121.659 123.944 122.757 125.732C123.924 127.52 125.023 129.205 126.052 130.787C127.082 132.3 127.975 133.676 128.73 134.914C129.485 136.151 130.034 137.011 130.378 137.493C130.515 137.768 130.687 138.112 130.893 138.524C131.167 138.937 131.236 139.281 131.099 139.556C130.961 139.762 130.687 139.865 130.275 139.865C129.931 139.865 129.657 139.9 129.451 139.968C129.108 139.968 128.49 139.968 127.597 139.968C126.773 140.037 125.846 140.106 124.817 140.175C123.787 140.244 122.826 140.278 121.933 140.278C121.041 140.278 120.457 140.278 120.183 140.278C119.702 140.278 119.221 140.244 118.741 140.175C118.329 140.106 117.883 140.037 117.402 139.968C116.921 139.968 116.407 139.934 115.857 139.865C115.308 139.796 114.93 139.556 114.724 139.143C114.313 138.318 113.454 136.805 112.15 134.604C110.914 132.335 109.575 129.962 108.134 127.486C106.692 124.941 105.319 122.569 104.014 120.368C102.71 118.098 101.783 116.585 101.234 115.829C101.234 116.585 101.234 118.098 101.234 120.368C101.234 122.637 101.234 125.079 101.234 127.692C101.303 130.237 101.337 132.678 101.337 135.017C101.337 137.286 101.337 138.765 101.337 139.453C101.406 139.796 101.234 140.037 100.822 140.175C100.479 140.381 100.135 140.519 99.7922 140.587ZM101.749 102.108C102.435 102.177 103.362 102.212 104.529 102.212C105.696 102.143 106.898 102.04 108.134 101.902C109.438 101.765 110.64 101.558 111.738 101.283C112.905 101.008 113.763 100.664 114.313 100.252C114.862 99.7702 115.239 99.1856 115.445 98.4979C115.72 97.7414 115.926 97.0192 116.063 96.3315C117.162 92.2738 117.059 88.285 115.754 84.3649C115.411 83.4708 114.999 82.6111 114.519 81.7859C114.107 80.8918 113.523 80.2041 112.768 79.7227C112.287 79.4476 111.566 79.2412 110.605 79.1037C109.713 78.8974 108.717 78.7598 107.619 78.691C106.589 78.6223 105.559 78.5879 104.529 78.5879C103.568 78.5879 102.847 78.6223 102.367 78.691C102.367 82.6111 102.264 86.5312 102.058 90.4513C101.92 94.3027 101.817 98.1884 101.749 102.108Z" fill="#9FF9FE"/>
<path d="M163.592 140.278C163.455 140.278 163.18 140.278 162.769 140.278C162.357 140.347 162.082 140.381 161.945 140.381C160.572 140.312 159.164 140.278 157.722 140.278C156.349 140.278 154.976 140.209 153.603 140.072C153.466 140.072 153.157 140.037 152.676 139.968C152.196 139.968 151.681 139.968 151.132 139.968C150.651 139.968 150.17 139.934 149.69 139.865C149.209 139.865 148.866 139.865 148.66 139.865C148.385 139.934 148.111 139.968 147.836 139.968C147.63 140.037 147.459 139.968 147.321 139.762C147.184 139.625 147.115 139.349 147.115 138.937C147.115 138.524 147.115 138.18 147.115 137.905C147.253 127.864 147.562 117.892 148.042 107.989C148.523 98.0164 149.038 88.0099 149.587 77.9689C148.145 78.1065 146.703 78.2096 145.262 78.2784C143.82 78.2784 142.378 78.3128 140.936 78.3816C140.525 78.3816 139.735 78.3816 138.568 78.3816C137.401 78.3816 136.611 78.3128 136.199 78.1752C136.062 78.0377 135.925 77.8314 135.787 77.5563C135.719 77.2812 135.684 77.0061 135.684 76.731C135.684 75.0804 135.65 73.4299 135.581 71.7793C135.513 70.1287 135.41 68.4438 135.273 66.7244C135.273 66.5181 135.41 66.2774 135.684 66.0023C135.959 65.7272 136.199 65.5897 136.405 65.5897C136.68 65.5897 137.229 65.5897 138.053 65.5897C138.946 65.5209 139.872 65.4521 140.833 65.3833C141.795 65.3146 142.687 65.2458 143.511 65.177C144.335 65.1082 144.918 65.0739 145.262 65.0739L163.489 64.4549C165.686 64.3173 167.883 64.3173 170.08 64.4549C172.346 64.5237 174.577 64.6268 176.774 64.7644C176.98 64.7644 177.255 64.7988 177.598 64.8675C178.01 64.8675 178.284 64.9363 178.422 65.0739C178.559 65.2114 178.593 65.4177 178.525 65.6928C178.525 65.9679 178.525 66.243 178.525 66.5181C178.525 66.862 178.525 67.5497 178.525 68.5813C178.525 69.6129 178.49 70.7133 178.422 71.8825C178.422 72.9828 178.422 74.0488 178.422 75.0804C178.422 76.112 178.422 76.7998 178.422 77.1436C178.422 77.7626 178.044 78.0721 177.289 78.0721C176.877 78.0721 176.053 78.0721 174.817 78.0721C173.65 78.0721 172.38 78.0721 171.007 78.0721C169.703 78.0033 168.433 77.9689 167.197 77.9689C166.03 77.9689 165.24 77.9689 164.828 77.9689C164.485 87.7348 164.176 97.4663 163.901 107.163C163.627 116.792 163.73 126.454 164.21 136.151C164.21 136.427 164.245 137.046 164.313 138.008C164.382 138.902 164.416 139.487 164.416 139.762C164.279 140.243 164.004 140.415 163.592 140.278Z" fill="#9FF9FE"/>
<path d="M201.004 139.762C200.73 140.106 200.215 140.244 199.46 140.175C198.704 140.106 198.155 140.072 197.812 140.072C197.469 140.072 196.748 140.037 195.649 139.968C194.551 139.968 193.349 139.934 192.045 139.865C190.809 139.796 189.642 139.762 188.544 139.762C187.445 139.693 186.724 139.659 186.381 139.659C185.9 139.796 185.557 139.693 185.351 139.349C185.214 139.143 185.111 138.799 185.042 138.318C185.042 137.768 185.042 137.355 185.042 137.08C185.042 130.684 185.042 124.357 185.042 118.098C185.111 111.84 185.248 105.513 185.454 99.1168C185.523 98.4291 185.557 97.2599 185.557 95.6094C185.626 93.89 185.695 91.9644 185.763 89.8324C185.9 87.6316 186.003 85.3277 186.072 82.9206C186.141 80.4448 186.175 78.1409 186.175 76.0089C186.244 73.8081 186.278 71.8825 186.278 70.2319C186.347 68.5125 186.381 67.309 186.381 66.6213C186.381 66.1398 186.347 65.624 186.278 65.0739C186.209 64.5237 186.45 64.2486 186.999 64.2486C187.136 64.2486 187.445 64.2486 187.926 64.2486C188.475 64.1798 188.818 64.1454 188.956 64.1454C190.329 64.1454 191.736 64.1798 193.178 64.2486C194.62 64.2486 196.027 64.2486 197.4 64.2486C198.018 64.2486 198.602 64.2486 199.151 64.2486C199.769 64.1798 200.352 64.1798 200.901 64.2486C201.176 64.2486 201.519 64.283 201.931 64.3517C202.412 64.3517 202.721 64.4549 202.858 64.6612C202.927 64.9363 202.927 65.2114 202.858 65.4865C202.789 66.3806 202.686 67.8936 202.549 70.0256C202.48 72.0888 202.343 74.4958 202.137 77.2468C202 79.929 201.828 82.7831 201.622 85.8091C201.485 88.8352 201.348 91.7237 201.21 94.4746C201.073 97.1568 200.936 99.5639 200.798 101.696C200.73 103.828 200.695 105.306 200.695 106.132C204.128 105.994 207.527 105.96 210.891 106.029C214.255 106.029 217.653 106.063 221.086 106.132C221.086 105.306 221.12 103.862 221.189 101.799C221.257 99.7358 221.326 97.3975 221.395 94.7841C221.463 92.1019 221.532 89.2822 221.601 86.3249C221.738 83.3677 221.841 80.5823 221.91 77.9689C221.978 75.2867 222.013 72.914 222.013 70.8508C222.081 68.7876 222.116 67.3434 222.116 66.5181C222.116 66.0367 222.081 65.5209 222.013 64.9707C222.013 64.4205 222.253 64.1454 222.733 64.1454C222.871 64.1454 223.18 64.1454 223.66 64.1454C224.21 64.0766 224.553 64.0423 224.69 64.0423C226.132 64.0423 227.539 64.0766 228.912 64.1454C230.354 64.1454 231.762 64.1454 233.135 64.1454C233.752 64.1454 234.336 64.1454 234.885 64.1454C235.503 64.0766 236.087 64.0423 236.636 64.0423C236.911 64.111 237.254 64.1798 237.666 64.2486C238.146 64.2486 238.455 64.3517 238.593 64.5581C238.661 64.6268 238.696 64.9019 238.696 65.3833C238.627 66.2086 238.524 67.6873 238.387 69.8192C238.249 71.8824 238.078 74.2551 237.872 76.9373C237.734 79.6195 237.563 82.4736 237.357 85.4996C237.22 88.4569 237.082 91.2766 236.945 93.9588C236.808 96.641 236.67 99.0481 236.533 101.18C236.464 103.243 236.43 104.687 236.43 105.513C236.293 110.464 236.327 115.382 236.533 120.265C236.739 125.079 236.911 129.962 237.048 134.914C237.048 135.189 237.048 135.567 237.048 136.048C237.117 136.461 237.151 136.908 237.151 137.389C237.151 137.871 237.117 138.318 237.048 138.73C237.048 139.143 236.945 139.453 236.739 139.659C236.533 139.934 236.052 140.037 235.297 139.968C234.542 139.968 233.958 139.968 233.547 139.968C233.203 139.968 232.482 139.934 231.384 139.865C230.285 139.865 229.084 139.831 227.78 139.762C226.544 139.693 225.377 139.659 224.278 139.659C223.18 139.59 222.459 139.556 222.116 139.556C221.978 139.556 221.807 139.556 221.601 139.556C221.395 139.487 221.223 139.384 221.086 139.246C220.948 139.04 220.845 138.662 220.777 138.112C220.777 137.561 220.777 137.183 220.777 136.977C220.777 133.744 220.777 130.546 220.777 127.383C220.777 124.219 220.811 120.987 220.88 117.686C220.262 117.755 218.992 117.755 217.07 117.686C215.147 117.617 213.053 117.548 210.788 117.479C208.591 117.411 206.497 117.342 204.506 117.273C202.583 117.204 201.313 117.17 200.695 117.17C200.764 120.196 200.833 123.188 200.901 126.145C201.039 129.102 201.142 132.059 201.21 135.017C201.279 135.567 201.348 136.427 201.416 137.596C201.485 138.696 201.348 139.418 201.004 139.762Z" fill="#9FF9FE"/>
<path d="M276.315 139.659C273.226 140.278 270.102 140.553 266.944 140.484C263.786 140.484 260.628 140.45 257.47 140.381C257.058 140.381 256.405 140.381 255.513 140.381C254.689 140.45 253.831 140.484 252.938 140.484C252.115 140.484 251.291 140.45 250.467 140.381C249.712 140.312 249.162 140.14 248.819 139.865C248.613 139.728 248.476 139.521 248.407 139.246C248.407 138.902 248.407 138.593 248.407 138.318C248.545 126.764 248.579 115.279 248.51 103.862C248.51 92.4458 248.442 80.9606 248.304 69.4066C248.236 68.6501 248.201 67.8592 248.201 67.0339C248.201 66.1398 248.579 65.624 249.334 65.4865C250.089 65.4177 251.497 65.3833 253.556 65.3833C255.616 65.3833 257.779 65.4177 260.044 65.4865C262.378 65.5553 264.541 65.624 266.532 65.6928C268.592 65.7616 269.999 65.8304 270.754 65.8991C275.011 66.243 279.061 67.4122 282.906 69.4066C285.858 71.1259 288.398 73.2923 290.527 75.9057C292.312 78.244 293.788 80.823 294.955 83.6428C296.122 86.4625 296.98 89.351 297.529 92.3082C298.285 96.022 298.765 99.7702 298.971 103.553C299.246 107.267 298.937 110.98 298.044 114.694C297.22 118.339 295.779 121.812 293.719 125.113C291.728 128.414 289.359 131.303 286.613 133.779C285.103 135.154 283.49 136.392 281.773 137.493C280.057 138.524 278.237 139.246 276.315 139.659ZM262.825 123.669C265.571 124.082 268.18 124.15 270.651 123.875C272.368 123.669 274.05 123.222 275.697 122.534C277.345 121.847 278.718 120.815 279.817 119.439C281.533 117.307 282.666 114.832 283.215 112.012C283.833 109.192 284.21 106.407 284.348 103.656C284.416 101.593 284.382 99.5295 284.245 97.4663C284.176 95.4031 283.867 93.3742 283.318 91.3798C282.975 90.1419 282.528 88.9383 281.979 87.7692C281.43 86.6 280.778 85.534 280.023 84.5712C279.199 83.5396 278.169 82.7143 276.933 82.0953C275.697 81.4076 274.427 80.8918 273.123 80.5479C269.484 79.7227 265.88 79.5507 262.31 80.0321C262.447 87.3221 262.584 94.6122 262.722 101.902C262.928 109.123 262.962 116.379 262.825 123.669Z" fill="#9FF9FE"/>
<path d="M314.901 140.484C312.91 140.553 310.885 140.484 308.825 140.278C306.834 140.072 304.809 140.037 302.749 140.175C302.406 140.175 302.097 140.037 301.822 139.762C301.548 139.487 301.445 139.178 301.513 138.834C302.063 135.808 302.749 132.816 303.573 129.859C304.397 126.901 305.186 123.944 305.942 120.987C307.795 114.109 309.683 107.335 311.606 100.664C313.597 93.9244 315.656 87.1502 317.784 80.3416C318.54 77.9345 319.261 75.5618 319.947 73.2235C320.702 70.8852 321.56 68.5469 322.522 66.2086C322.59 66.0711 322.59 65.9679 322.522 65.8991C322.522 65.7616 322.59 65.624 322.728 65.4865C322.934 65.1426 323.346 64.9707 323.963 64.9707C324.65 64.9019 325.199 64.8675 325.611 64.8675C327.602 64.9363 329.559 65.0051 331.481 65.0739C333.472 65.0739 335.463 65.0395 337.454 64.9707C338.003 64.9707 338.552 64.9363 339.102 64.8675C339.651 64.7988 340.166 64.8675 340.646 65.0739C340.852 65.1426 341.024 65.2802 341.161 65.4865C341.299 65.6928 341.436 65.8991 341.573 66.1055C343.976 74.9773 346.139 83.8835 348.061 92.824C350.052 101.696 352.043 110.636 354.034 119.646C355.476 126.317 357.123 132.782 358.977 139.04C359.114 139.384 359.149 139.625 359.08 139.762C359.011 140.106 358.805 140.278 358.462 140.278C358.188 140.278 357.913 140.278 357.638 140.278C357.089 140.278 356.128 140.244 354.755 140.175C353.45 140.175 352.043 140.14 350.533 140.072C349.022 140.072 347.58 140.072 346.207 140.072C344.834 140.072 343.907 140.14 343.427 140.278C343.221 140.278 343.049 140.14 342.912 139.865C342.843 139.521 342.706 138.868 342.5 137.905C342.294 136.942 342.054 135.911 341.779 134.81C341.573 133.641 341.367 132.575 341.161 131.612C340.955 130.65 340.818 129.996 340.749 129.652C340.063 129.584 338.724 129.515 336.733 129.446C334.742 129.377 332.614 129.308 330.348 129.24C328.151 129.171 326.057 129.137 324.066 129.137C322.075 129.068 320.737 129.033 320.05 129.033C319.707 130.684 319.329 132.335 318.917 133.985C318.574 135.636 318.265 137.321 317.99 139.04C317.853 139.59 317.441 139.968 316.755 140.175C316.137 140.381 315.519 140.484 314.901 140.484ZM322.728 117.583C325.336 117.72 327.945 117.823 330.554 117.892C333.163 117.892 335.772 117.926 338.381 117.995C338.243 117.239 338.003 115.966 337.66 114.178C337.317 112.321 336.905 110.224 336.424 107.885C335.944 105.478 335.429 102.934 334.879 100.252C334.399 97.5694 333.918 95.0592 333.438 92.7209C332.957 90.3138 332.511 88.2162 332.099 86.4281C331.756 84.5712 331.515 83.2645 331.378 82.508C329.868 88.3537 328.392 94.1995 326.95 100.045C325.508 105.822 324.101 111.668 322.728 117.583Z" fill="#9FF9FE"/>
<path d="M391.723 139.659C391.517 140.003 391.139 140.175 390.59 140.175C390.178 140.175 389.354 140.175 388.118 140.175C386.883 140.175 385.578 140.14 384.205 140.072C382.901 140.072 381.631 140.037 380.395 139.968C379.159 139.968 378.335 139.934 377.923 139.865C377.717 139.934 377.511 139.9 377.305 139.762C377.099 139.625 376.996 139.453 376.996 139.246C377.065 137.252 377.134 135.326 377.202 133.469C377.34 131.544 377.443 129.584 377.511 127.589C377.649 124.494 377.683 121.4 377.614 118.305C377.546 115.141 377.511 112.012 377.511 108.917C373.598 102.452 369.753 95.9876 365.977 89.5229C362.27 82.9894 358.494 76.4559 354.649 69.9224C354.581 69.8536 354.443 69.6817 354.237 69.4066C354.1 69.0627 353.929 68.7189 353.723 68.375C353.517 68.0311 353.311 67.7216 353.105 67.4466C352.967 67.1715 352.864 66.9651 352.796 66.8276C352.658 66.4837 352.521 66.1742 352.384 65.8991C352.315 65.5553 352.453 65.3489 352.796 65.2802C353.002 65.2114 353.311 65.177 353.723 65.177C354.203 65.1082 354.684 65.0739 355.164 65.0739C355.645 65.0051 356.091 64.9707 356.503 64.9707C356.984 64.9707 357.327 64.9707 357.533 64.9707C359.249 64.9707 360.931 64.9707 362.579 64.9707C364.295 64.9707 366.012 65.0051 367.728 65.0739C368.277 65.0739 368.689 65.3489 368.964 65.8991C369.238 66.4493 369.547 66.9307 369.891 67.3434C372.431 71.6761 374.868 76.0433 377.202 80.4448C379.605 84.7775 382.145 89.0759 384.823 93.3398C387.432 89.1446 389.903 84.9151 392.238 80.6511C394.641 76.3184 397.112 72.02 399.652 67.756C399.927 67.2746 400.202 66.7588 400.476 66.2086C400.751 65.6584 401.163 65.3833 401.712 65.3833C402.261 65.3833 403.222 65.3489 404.595 65.2802C406.037 65.2114 407.548 65.177 409.127 65.177C410.706 65.177 412.182 65.2114 413.555 65.2802C414.997 65.2802 415.992 65.349 416.541 65.4865C417.022 65.5553 417.125 65.9335 416.85 66.6213C416.644 67.1714 416.37 67.7216 416.026 68.2718C415.752 68.7532 415.443 69.269 415.1 69.8192C411.255 76.284 407.479 82.7487 403.772 89.2134C400.133 95.6094 396.357 102.04 392.444 108.504C392.444 113.594 392.409 118.683 392.341 123.772C392.272 128.793 392.272 133.848 392.341 138.937C392.341 139.349 392.135 139.59 391.723 139.659Z" fill="#9FF9FE"/>
</svg>
